<?xml version="1.0" standalone="no"?>
<!DOCTYPE svg PUBLIC "-//W3C//DTD SVG 20010904//EN"
 "http://www.w3.org/TR/2001/REC-SVG-20010904/DTD/svg10.dtd">
<svg version="1.0" xmlns="http://www.w3.org/2000/svg"
 width="1024.000000pt" height="1024.000000pt" viewBox="0 0 1024.000000 1024.000000"
 preserveAspectRatio="xMidYMid meet">

<g transform="translate(0.000000,1024.000000) scale(0.100000,-0.100000)"
fill="#000000" stroke="none">
<path d="M0 5120 l0 -5120 5120 0 5120 0 0 5120 0 5120 -5120 0 -5120 0 0
-5120z m5295 3950 c497 -46 961 -229 1330 -524 99 -79 294 -275 375 -376 274
-344 451 -754 512 -1190 20 -146 17 -547 -5 -690 -109 -698 -461 -1267 -1037
-1672 -281 -198 -655 -344 -1000 -393 -338 -47 -651 -25 -981 70 -115 33 -345
119 -363 136 -11 10 21 172 60 306 14 48 26 89 27 90 2 1 83 -11 182 -28 160
-26 439 -59 501 -59 l24 0 0 1339 0 1339 -96 41 c-154 66 -232 117 -439 284
-22 18 -23 18 -64 -3 -24 -12 -149 -68 -279 -126 -130 -58 -240 -108 -244
-112 -4 -4 27 -84 68 -177 42 -94 117 -267 169 -385 51 -118 122 -280 157
-360 36 -80 79 -181 96 -225 l30 -80 -14 -75 c-9 -41 -17 -82 -20 -90 -9 -25
-57 42 -125 174 l-61 118 -89 -170 -88 -170 43 -133 c23 -74 62 -187 85 -252
34 -93 42 -125 37 -155 -14 -78 -87 -442 -109 -547 -20 -89 -112 -401 -122
-413 -2 -2 -43 25 -91 59 -501 348 -849 846 -994 1419 -58 227 -65 290 -64
600 0 312 7 378 66 605 114 444 350 852 670 1161 170 165 417 335 643 443 373
180 804 258 1210 221z m-843 -3179 l37 -22 -26 -67 c-51 -132 -153 -455 -185
-585 -17 -73 -33 -134 -34 -135 -3 -4 -125 48 -136 58 -14 11 176 612 232 736
29 65 30 66 52 52 13 -8 40 -24 60 -37z m-1092 -2091 l0 -99 -296 -3 -296 -3
-19 -24 c-14 -17 -19 -39 -19 -82 0 -72 -3 -71 178 -110 365 -79 425 -99 475
-159 38 -45 50 -101 43 -196 -13 -179 -69 -266 -188 -294 -24 -5 -190 -10
-370 -10 l-328 0 0 100 0 100 314 0 c173 0 322 3 331 6 25 10 45 58 45 108 0
37 -5 49 -23 61 -13 8 -135 40 -273 71 -137 31 -264 63 -282 71 -92 43 -127
127 -120 282 6 105 23 159 66 204 65 69 100 75 460 76 l302 1 0 -100z m1005
77 c51 -23 91 -61 118 -112 19 -35 22 -60 25 -195 5 -185 -10 -255 -65 -320
-70 -81 -84 -85 -375 -88 l-258 -3 0 -170 0 -169 -105 0 -105 0 0 541 0 540
363 -3 c323 -3 366 -5 402 -21z m1218 -10 c62 -31 94 -66 129 -143 22 -47 23
-62 26 -329 3 -190 0 -298 -8 -335 -23 -107 -88 -184 -185 -217 -43 -16 -89
-18 -335 -18 -248 0 -292 2 -336 18 -69 24 -127 76 -161 145 l-28 57 0 315 c0
336 1 345 52 422 32 48 85 84 153 102 44 13 112 15 345 13 l290 -2 58 -28z
m1120 0 c111 -55 152 -158 145 -362 -5 -130 -19 -180 -71 -241 -28 -33 -82
-63 -129 -73 -27 -6 -26 -8 107 -183 74 -98 135 -180 135 -183 0 -3 -57 -4
-127 -3 l-128 3 -122 170 -122 170 -130 5 -131 5 0 -177 0 -178 -105 0 -105 0
0 541 0 540 363 -3 362 -3 58 -28z m1167 -67 l0 -100 -177 -2 -178 -3 -3 -437
-2 -438 -100 0 -100 0 0 440 0 440 -170 0 -170 0 0 100 0 100 450 0 450 0 0
-100z m-5490 -1620 l0 -410 270 0 270 0 0 -100 0 -100 -367 2 -367 3 -3 508
-3 507 100 0 100 0 0 -410z m1477 381 c61 -27 125 -92 156 -159 21 -45 22 -60
22 -317 0 -242 -2 -275 -19 -320 -25 -65 -94 -137 -159 -166 -49 -22 -66 -24
-289 -27 -199 -3 -247 -1 -295 13 -103 30 -169 92 -210 195 -15 39 -17 81 -18
300 0 292 6 324 77 405 84 95 125 105 433 102 239 -2 252 -3 302 -26z m1077
12 c78 -22 142 -83 171 -163 30 -84 28 -275 -3 -346 -30 -66 -78 -112 -140
-133 l-49 -17 114 -154 c63 -85 119 -163 124 -172 9 -17 1 -18 -114 -18 l-124
0 -114 165 -114 164 -122 1 -123 0 0 -165 0 -165 -100 0 -100 0 0 510 0 510
317 0 c268 0 326 -3 377 -17z m541 -73 c29 -47 85 -140 125 -208 40 -68 76
-120 80 -115 5 4 60 98 124 208 l115 200 120 3 c67 1 121 1 121 -1 0 -2 -86
-148 -192 -323 l-191 -319 0 -187 1 -188 -104 0 -104 0 0 192 0 193 -34 55
c-18 30 -91 150 -161 265 -70 116 -142 234 -161 263 l-35 53 122 -3 122 -3 52
-85z m997 -282 c4 -402 6 -416 57 -437 14 -6 101 -12 192 -13 189 -3 210 3
228 69 7 23 11 178 11 396 l0 357 100 0 100 0 0 -393 c0 -444 -3 -467 -68
-539 -68 -75 -97 -82 -344 -86 -312 -5 -378 16 -443 143 l-30 59 -3 408 -3
408 100 0 99 0 4 -372z m1628 272 l0 -100 -259 0 c-143 0 -271 -4 -285 -9 -47
-18 -45 -135 3 -161 11 -5 104 -26 207 -46 225 -43 281 -62 327 -113 47 -53
61 -100 61 -206 -1 -132 -42 -207 -142 -256 -46 -23 -54 -24 -364 -27 l-318
-3 0 98 0 98 252 -2 c247 -2 329 4 350 25 16 16 22 96 9 120 -14 26 -69 44
-266 83 -188 37 -250 58 -293 100 -41 40 -52 82 -52 205 0 172 34 238 142 275
46 16 88 18 341 19 l287 0 0 -100z"/>
<path d="M4885 8900 c-208 -22 -420 -75 -625 -156 -749 -297 -1301 -1030
-1389 -1846 -16 -141 -14 -438 4 -570 47 -355 195 -722 410 -1014 57 -77 219
-269 236 -280 5 -3 -1 17 -12 43 -42 99 -159 404 -219 573 -34 96 -89 251
-122 343 -37 101 -61 186 -62 210 0 40 198 581 426 1162 79 200 96 223 199
275 58 30 339 155 500 224 l85 37 83 249 c93 282 94 285 207 320 107 33 269
43 588 37 306 -6 397 -16 481 -57 23 -11 51 -30 63 -43 13 -13 53 -118 100
-262 l79 -239 49 -23 c27 -13 126 -56 219 -97 224 -97 373 -169 409 -197 38
-30 78 -117 202 -444 56 -148 136 -360 179 -470 144 -376 165 -436 165 -471 0
-19 -11 -65 -24 -102 -13 -37 -67 -190 -120 -340 -80 -226 -252 -678 -273
-717 -9 -16 129 134 168 184 156 197 319 517 393 773 76 263 105 603 75 889
-65 640 -431 1252 -969 1621 -262 180 -589 314 -900 368 -140 24 -464 35 -605
20z"/>
<path d="M4730 8345 c-8 -2 -32 -6 -52 -10 -58 -9 -50 -36 35 -119 60 -59 92
-81 187 -128 63 -31 125 -67 137 -80 l23 -24 2 -1702 3 -1702 -61 0 c-89 0
-369 28 -519 51 -71 11 -139 21 -149 22 -15 2 -22 -9 -32 -53 -7 -30 -13 -58
-14 -62 -1 -23 297 -117 476 -149 164 -30 544 -33 708 -6 202 34 455 115 588
189 41 22 43 25 46 76 3 48 1 53 -15 48 -10 -3 -101 -21 -203 -40 -213 -40
-399 -63 -587 -72 l-133 -7 0 1689 c0 1597 1 1691 18 1722 19 36 36 47 182
116 144 68 254 176 218 212 -27 27 -133 34 -488 33 -195 -1 -362 -3 -370 -4z"/>
<path d="M4509 8009 l-43 -133 54 -48 c77 -69 203 -151 303 -198 47 -22 88
-40 91 -40 3 0 6 72 6 159 l0 159 -99 50 c-95 47 -187 108 -242 159 l-27 24
-43 -132z"/>
<path d="M5585 8059 c-49 -38 -129 -89 -177 -112 l-87 -42 -1 -158 0 -158 23
6 c12 4 63 26 112 51 94 46 187 111 267 187 l47 44 -42 127 c-23 69 -44 126
-47 125 -3 0 -45 -32 -95 -70z"/>
<path d="M5790 7693 c-136 -118 -250 -188 -392 -238 l-78 -28 0 -1344 0 -1344
48 5 c26 3 83 8 127 11 107 7 246 28 443 66 l162 32 2 91 c4 152 1 167 -92
499 -178 630 -180 642 -163 685 6 15 73 164 148 332 75 168 184 414 242 548
57 134 129 298 159 364 30 67 51 124 47 128 -4 4 -98 46 -208 95 -110 48 -235
105 -277 126 -43 22 -81 39 -85 38 -5 0 -42 -30 -83 -66z"/>
<path d="M3662 7289 c-36 -92 -262 -699 -262 -705 0 -4 -34 -92 -76 -197 l-76
-190 52 -130 c29 -72 67 -174 85 -226 44 -129 338 -912 367 -978 l23 -53 38
133 c21 72 58 231 83 353 l45 221 -50 150 c-74 223 -121 381 -121 409 0 14 54
130 120 257 139 267 138 264 73 399 -19 40 -82 178 -139 305 -57 128 -112 249
-122 269 l-19 36 -21 -53z"/>
<path d="M6455 7128 c-49 -112 -117 -267 -152 -346 -47 -106 -63 -155 -63
-188 0 -49 6 -62 153 -336 81 -152 89 -171 82 -205 -3 -21 -63 -208 -131 -415
l-125 -377 17 -63 c14 -52 17 -104 15 -292 -2 -266 -16 -248 126 -153 l92 62
65 160 c78 193 166 423 291 765 51 140 107 291 125 335 54 133 53 123 5 233
-24 55 -80 195 -124 313 -73 196 -214 563 -256 667 -9 23 -20 42 -25 42 -4 0
-47 -91 -95 -202z"/>
<path d="M6071 6238 l-73 -163 37 -140 c21 -77 54 -200 73 -273 19 -73 39
-129 43 -125 10 11 169 498 169 518 0 14 -167 345 -174 345 -1 0 -35 -73 -75
-162z"/>
<path d="M3810 3528 l0 -173 227 5 c126 3 234 9 242 14 40 26 56 190 26 262
-24 57 -54 64 -290 64 l-205 0 0 -172z"/>
<path d="M4971 3690 c-18 -4 -45 -20 -60 -34 l-26 -26 -3 -243 c-4 -267 1
-301 49 -341 l31 -26 241 0 c276 0 300 5 323 70 15 43 19 506 4 544 -5 14 -21
33 -37 43 -24 16 -54 18 -258 20 -126 1 -245 -2 -264 -7z"/>
<path d="M6130 3535 l0 -166 219 3 c204 3 222 5 248 24 58 42 79 139 50 223
-24 67 -36 71 -289 76 l-228 5 0 -165z"/>
<path d="M3313 2375 c-61 -26 -68 -55 -68 -285 0 -185 2 -209 20 -245 35 -70
57 -76 277 -77 296 -2 293 -6 293 312 0 316 5 310 -297 310 -142 -1 -201 -4
-225 -15z"/>
<path d="M4440 2242 l0 -153 203 3 c230 3 257 11 284 76 18 44 12 131 -11 168
-37 55 -53 59 -273 59 l-203 0 0 -153z"/>
</g>
</svg>
